<svg width="128" height="52" viewBox="0 0 128 52" fill="none" xmlns="http://www.w3.org/2000/svg">
<g clip-path="url(#clip0_215_26)">
<rect width="23" height="50" rx="11.5" fill="black"/>
<path d="M6 41C5.90667 39.1467 5.80667 37.3 5.7 35.46C5.60667 33.6067 5.50667 31.76 5.4 29.92C5.30667 28.0667 5.21333 26.2133 5.12 24.36C6.6 24.3067 7.62 24.1667 8.18 23.94C8.75333 23.7 9.04 23.32 9.04 22.8C9.04 22.32 8.73333 22.0133 8.12 21.88C7.52 21.7467 6.48 21.7333 5 21.84C4.96 21.4933 4.92667 21.1467 4.9 20.8C4.88667 20.44 4.88 20.0933 4.88 19.76C5.73333 19.6933 6.42 19.5933 6.94 19.46C7.46 19.3133 7.84 19.1267 8.08 18.9C8.32 18.66 8.44 18.3733 8.44 18.04C8.44 17.5067 8.09333 17.1667 7.4 17.02C6.70667 16.8733 5.8 16.8533 4.68 16.96C4.64 16.6933 4.61333 16.4333 4.6 16.18C4.6 15.9133 4.6 15.6533 4.6 15.4C4.6 14.56 4.8 13.9733 5.2 13.64C5.61333 13.3067 6.28 13.12 7.2 13.08C9.16 13 11.0667 13 12.92 13.08C14.7733 13.1467 16.5067 13.2933 18.12 13.52C19.0667 13.64 19.7533 13.9 20.18 14.3C20.62 14.7 20.84 15.1733 20.84 15.72C20.84 16.48 20.5933 17.0467 20.1 17.42C19.62 17.78 19.0533 18.0933 18.4 18.36C17.4 18.76 16.4667 19.0733 15.6 19.3C14.7333 19.5133 13.9067 19.7867 13.12 20.12C12.7867 20.2533 12.5 20.3867 12.26 20.52C12.0333 20.6533 11.84 20.8 11.68 20.96C11.52 21.1333 11.3933 21.3333 11.3 21.56C11.22 21.7867 11.16 22.08 11.12 22.44C11.08 22.7733 11.0533 23.1067 11.04 23.44C11.04 23.76 11.04 24.0933 11.04 24.44C11.04 24.8933 11.1267 25.22 11.3 25.42C11.4733 25.6067 11.8667 25.68 12.48 25.64C13.36 25.5733 14.24 25.4733 15.12 25.34C16 25.2067 16.88 25.12 17.76 25.08C18.3333 25.0533 18.76 25.1867 19.04 25.48C19.32 25.7733 19.46 26.1067 19.46 26.48C19.46 26.8267 19.34 27.1667 19.1 27.5C18.86 27.82 18.5067 28.0133 18.04 28.08C17 28.2 16 28.2733 15.04 28.3C14.08 28.3133 13.12 28.3867 12.16 28.52C11.6 28.5733 11.2933 28.7733 11.24 29.12C11.1867 29.4533 11.3867 29.7133 11.84 29.9C12.48 30.1667 13.1133 30.38 13.74 30.54C14.3667 30.7 15 30.92 15.64 31.2C15.9867 31.3467 16.24 31.5533 16.4 31.82C16.56 32.0867 16.64 32.3667 16.64 32.66C16.64 33.14 16.4333 33.56 16.02 33.92C15.62 34.2667 15.0667 34.32 14.36 34.08C13.7867 33.88 13.2467 33.6533 12.74 33.4C12.2467 33.1467 11.72 32.9333 11.16 32.76C10.6 32.5733 10.1733 32.56 9.88 32.72C9.6 32.8667 9.44 33.2133 9.4 33.76C9.30667 34.92 9.26 36.12 9.26 37.36C9.27333 38.6 9.22667 39.8133 9.12 41C9.09333 41.3467 9.00667 41.6267 8.86 41.84C8.71333 42.0667 8.52667 42.2267 8.3 42.32C8.07333 42.4267 7.82667 42.48 7.56 42.48C7.14667 42.48 6.78667 42.36 6.48 42.12C6.17333 41.8933 6.01333 41.52 6 41ZM12.72 18.2C13.2 18.2 13.58 18.0333 13.86 17.7C14.14 17.3667 14.28 16.9333 14.28 16.4C14.28 15.9733 14.1333 15.62 13.84 15.34C13.56 15.06 13.24 14.92 12.88 14.92C12.2 14.92 11.7133 15.06 11.42 15.34C11.14 15.6067 11 16 11 16.52C11 17.0133 11.14 17.42 11.42 17.74C11.7133 18.0467 12.1467 18.2 12.72 18.2Z" fill="white"/>
</g>
<path d="M37 41.08C35.7067 41.08 34.54 40.9067 33.5 40.56C32.46 40.2133 31.56 39.68 30.8 38.96C30.04 38.2267 29.4267 37.32 28.96 36.24C28.4933 35.1467 28.1867 33.88 28.04 32.44C27.9467 31.5733 27.84 30.5467 27.72 29.36C27.6133 28.16 27.5067 26.9067 27.4 25.6C27.2933 24.28 27.1933 23 27.1 21.76C27.0067 20.5067 26.9267 19.3933 26.86 18.42C26.8067 17.4333 26.78 16.6933 26.78 16.2C26.78 15.2933 26.9733 14.64 27.36 14.24C27.7467 13.84 28.3067 13.64 29.04 13.64C29.8 13.64 30.34 13.88 30.66 14.36C30.9933 14.8267 31.16 15.6 31.16 16.68C31.16 17.36 31.1533 18.0533 31.14 18.76C31.1267 19.4667 31.1067 20.1867 31.08 20.92C31.0667 21.64 31.0533 22.3733 31.04 23.12C31.0267 23.8667 31.0133 24.6133 31 25.36C30.9867 26.1067 30.98 26.8533 30.98 27.6C30.98 28.7067 31.02 29.6533 31.1 30.44C31.18 31.2133 31.4 31.8 31.76 32.2C32.1333 32.6 32.76 32.8 33.64 32.8C34.68 32.8 35.6467 32.5733 36.54 32.12C37.4467 31.6667 38.2667 30.9933 39 30.1C39.7333 29.2067 40.3467 28.0933 40.84 26.76C41.16 25.88 41.4533 25.0267 41.72 24.2C41.9867 23.36 42.24 22.54 42.48 21.74C42.72 20.94 42.96 20.1533 43.2 19.38C43.44 18.5933 43.6933 17.8133 43.96 17.04C44.16 16.4533 44.38 16.02 44.62 15.74C44.8733 15.46 45.2 15.32 45.6 15.32C46.0267 15.32 46.3267 15.48 46.5 15.8C46.6733 16.1067 46.7667 16.5533 46.78 17.14C46.7667 17.7667 46.74 18.5667 46.7 19.54C46.66 20.5 46.6133 21.5467 46.56 22.68C46.5067 23.8133 46.44 24.96 46.36 26.12C46.28 27.28 46.1933 28.3867 46.1 29.44C46.02 30.48 45.9467 31.3867 45.88 32.16C45.6667 34.3733 45.12 36.1333 44.24 37.44C43.36 38.7333 42.2867 39.6667 41.02 40.24C39.7533 40.8 38.4133 41.08 37 41.08ZM35.2 30.84C34.5867 30.84 34.1 30.64 33.74 30.24C33.38 29.8267 33.2 29.2467 33.2 28.5C33.2 28.02 33.34 27.6 33.62 27.24C33.9 26.8667 34.3267 26.68 34.9 26.68C35.7 26.68 36.3067 26.84 36.72 27.16C37.1467 27.4667 37.36 27.9333 37.36 28.56C37.36 29.3067 37.16 29.8733 36.76 30.26C36.36 30.6467 35.84 30.84 35.2 30.84ZM28.2 19.24C28.8267 19.2 29.3 19.26 29.62 19.42C29.94 19.5667 30.1 19.92 30.1 20.48C30.1 20.8133 29.98 21.0733 29.74 21.26C29.5 21.4333 29.0867 21.56 28.5 21.64C28.2067 21.6667 27.92 21.7133 27.64 21.78C27.36 21.8333 27.08 21.88 26.8 21.92C25.9467 22.04 25.26 22.0733 24.74 22.02C24.22 21.9667 23.96 21.6 23.96 20.92C23.96 20.52 24.1467 20.22 24.52 20.02C24.8933 19.82 25.4667 19.6533 26.24 19.52C26.56 19.4533 26.8867 19.3933 27.22 19.34C27.5533 19.2867 27.88 19.2533 28.2 19.24ZM33.6 22.4C34.1467 22.3467 34.6067 22.3267 34.98 22.34C35.3667 22.34 35.66 22.42 35.86 22.58C36.06 22.7267 36.16 22.9733 36.16 23.32C36.16 23.5733 36.08 23.7933 35.92 23.98C35.7733 24.1667 35.5267 24.3267 35.18 24.46C34.8467 24.5933 34.3867 24.7067 33.8 24.8C33.3067 24.88 32.76 24.9667 32.16 25.06C31.56 25.1533 30.9067 25.24 30.2 25.32C29.6533 25.36 29.2333 25.32 28.94 25.2C28.66 25.0667 28.52 24.72 28.52 24.16C28.52 23.8533 28.6067 23.6 28.78 23.4C28.9533 23.1867 29.2 23.0533 29.52 23C30.2 22.8533 30.88 22.7333 31.56 22.64C32.24 22.5333 32.92 22.4533 33.6 22.4ZM46.36 26.68C47.64 26.8 48.5267 26.98 49.02 27.22C49.5133 27.4467 49.76 27.76 49.76 28.16C49.76 28.92 49.4 29.3267 48.68 29.38C47.9733 29.42 47.0733 29.4133 45.98 29.36C45.62 29.3333 45.2467 29.3 44.86 29.26C44.4867 29.22 44.1067 29.1733 43.72 29.12C43.36 29.0533 43.0867 28.8933 42.9 28.64C42.7133 28.3733 42.62 28.08 42.62 27.76C42.62 27.4133 42.7333 27.1067 42.96 26.84C43.1867 26.5733 43.5067 26.4533 43.92 26.48C44.3067 26.4933 44.7067 26.52 45.12 26.56C45.5333 26.6 45.9467 26.64 46.36 26.68ZM40.34 36.92C40.7533 36.92 41.1 36.7667 41.38 36.46C41.66 36.1533 41.8 35.7733 41.8 35.32C41.8 34.72 41.66 34.2667 41.38 33.96C41.1 33.64 40.64 33.48 40 33.48C39.5067 33.48 39.1133 33.6133 38.82 33.88C38.5267 34.1467 38.38 34.5333 38.38 35.04C38.38 35.6 38.5333 36.0533 38.84 36.4C39.1467 36.7467 39.6467 36.92 40.34 36.92ZM43 32.68C43.3467 32.68 43.6333 32.5533 43.86 32.3C44.1 32.0333 44.22 31.68 44.22 31.24C44.22 30.8 44.0933 30.46 43.84 30.22C43.6 29.9667 43.32 29.84 43 29.84C42.4 29.84 41.9733 29.9733 41.72 30.24C41.48 30.5067 41.36 30.88 41.36 31.36C41.36 31.72 41.4867 32.0333 41.74 32.3C42.0067 32.5533 42.4267 32.68 43 32.68ZM35.56 38.16C36.0267 38.16 36.3867 38.0333 36.64 37.78C36.9067 37.5133 37.04 37.1733 37.04 36.76C37.04 36.2533 36.9267 35.8867 36.7 35.66C36.4733 35.4333 36.0667 35.32 35.48 35.32C35.0667 35.32 34.7467 35.4467 34.52 35.7C34.3067 35.94 34.2 36.24 34.2 36.6C34.2 37.08 34.3333 37.46 34.6 37.74C34.8667 38.02 35.1867 38.16 35.56 38.16ZM51.3144 39.16C51.3277 38.2 51.3544 37.0667 51.3944 35.76C51.4477 34.44 51.5077 33.0467 51.5744 31.58C51.641 30.1 51.7144 28.64 51.7944 27.2C51.7944 26.9733 51.801 26.76 51.8144 26.56C51.841 26.3467 51.8544 26.1333 51.8544 25.92C51.881 25.6933 51.8944 25.48 51.8944 25.28C51.8944 25.0667 51.901 24.8533 51.9144 24.64C51.941 24.24 51.961 23.86 51.9744 23.5C52.001 23.1267 52.021 22.76 52.0344 22.4C53.5944 22.36 54.7744 22.2733 55.5744 22.14C56.3877 22.0067 56.9344 21.8133 57.2144 21.56C57.4944 21.3067 57.621 20.9733 57.5944 20.56C57.5544 20.0133 57.161 19.68 56.4144 19.56C55.681 19.44 54.2744 19.4933 52.1944 19.72C52.221 19.4133 52.241 19.12 52.2544 18.84C52.281 18.5467 52.301 18.2533 52.3144 17.96C52.461 16.2933 52.8744 15.1133 53.5544 14.42C54.2477 13.7133 55.1877 13.36 56.3744 13.36C57.4944 13.36 58.401 13.6533 59.0944 14.24C59.801 14.8133 60.5144 15.8 61.2344 17.2C61.7544 18.2 62.321 19.4533 62.9344 20.96C63.5477 22.4667 64.181 24.0867 64.8344 25.82C65.501 27.54 66.161 29.2467 66.8144 30.94C67.4677 32.62 68.0877 34.1333 68.6744 35.48C68.821 35.8267 69.021 36.04 69.2744 36.12C69.541 36.1867 69.7744 36.1333 69.9744 35.96C70.1877 35.7867 70.2877 35.5067 70.2744 35.12C70.221 33.08 70.161 30.8933 70.0944 28.56C70.0277 26.2133 69.9677 23.9133 69.9144 21.66C69.8744 19.3933 69.8344 17.36 69.7944 15.56C69.7677 14.6933 69.8744 14.0333 70.1144 13.58C70.3544 13.1133 70.8344 12.88 71.5544 12.88C72.301 12.88 72.781 13.1133 72.9944 13.58C73.2077 14.0333 73.3144 14.6667 73.3144 15.48C73.3144 17.4667 73.3144 19.6733 73.3144 22.1C73.3144 24.5133 73.301 26.98 73.2744 29.5C73.261 32.02 73.221 34.4267 73.1544 36.72C73.1144 38.0533 72.741 38.9933 72.0344 39.54C71.341 40.0867 70.581 40.36 69.7544 40.36C69.1944 40.36 68.621 40.2467 68.0344 40.02C67.4477 39.7933 66.8477 39.36 66.2344 38.72C65.101 37.48 64.001 36.1533 62.9344 34.74C61.8677 33.3133 60.8344 31.9133 59.8344 30.54C58.8477 29.1533 57.881 27.9067 56.9344 26.8C56.7077 26.5333 56.5344 26.36 56.4144 26.28C56.3077 26.2 56.181 26.16 56.0344 26.16C55.701 26.16 55.4477 26.28 55.2744 26.52C55.1144 26.76 55.0344 27.08 55.0344 27.48C55.0344 28.76 55.0677 30.0467 55.1344 31.34C55.2144 32.6333 55.281 33.9333 55.3344 35.24C55.401 36.5467 55.4344 37.8533 55.4344 39.16C55.4344 40.1067 55.281 40.84 54.9744 41.36C54.6677 41.8667 54.1144 42.12 53.3144 42.12C52.501 42.12 51.961 41.8333 51.6944 41.26C51.4277 40.6733 51.301 39.9733 51.3144 39.16ZM70.0744 16.56C70.261 16.5733 70.4344 16.5933 70.5944 16.62C70.7677 16.6333 70.941 16.6533 71.1144 16.68C71.3544 16.72 71.5544 16.8 71.7144 16.92C71.8877 17.04 72.0144 17.2 72.0944 17.4C72.1877 17.5867 72.2344 17.8 72.2344 18.04C72.2344 18.2667 72.1944 18.4733 72.1144 18.66C72.0344 18.8333 71.901 18.98 71.7144 19.1C71.541 19.2067 71.301 19.2667 70.9944 19.28C70.8344 19.28 70.6744 19.28 70.5144 19.28C70.3544 19.28 70.1944 19.28 70.0344 19.28C68.7544 19.2267 67.7877 19.14 67.1344 19.02C66.481 18.9 66.041 18.7333 65.8144 18.52C65.5877 18.3067 65.4744 18.0267 65.4744 17.68C65.4744 17.2933 65.5877 17 65.8144 16.8C66.0544 16.5867 66.501 16.46 67.1544 16.42C67.821 16.3667 68.7944 16.4133 70.0744 16.56ZM71.3944 19.6C71.4744 19.6 71.5544 19.6 71.6344 19.6C71.7144 19.6 71.7944 19.6 71.8744 19.6C72.061 19.6 72.281 19.7267 72.5344 19.98C72.7877 20.22 72.9144 20.5467 72.9144 20.96C72.9144 21.36 72.801 21.6733 72.5744 21.9C72.361 22.1267 72.161 22.24 71.9744 22.24C71.8544 22.24 71.7544 22.24 71.6744 22.24C71.6077 22.24 71.5077 22.24 71.3744 22.24C71.0544 22.24 70.8144 22.1267 70.6544 21.9C70.5077 21.66 70.4344 21.32 70.4344 20.88C70.4344 20.4133 70.521 20.0867 70.6944 19.9C70.8677 19.7 71.101 19.6 71.3944 19.6ZM72.2744 22.2C72.461 22.1733 72.6144 22.1533 72.7344 22.14C72.8677 22.1267 72.9944 22.12 73.1144 22.12C74.141 22.04 74.901 22.04 75.3944 22.12C75.8877 22.2 76.2077 22.3467 76.3544 22.56C76.501 22.7733 76.5744 23.04 76.5744 23.36C76.5744 23.72 76.501 24.02 76.3544 24.26C76.221 24.5 75.9077 24.6733 75.4144 24.78C74.9344 24.8867 74.1944 24.92 73.1944 24.88C73.0344 24.88 72.861 24.88 72.6744 24.88C72.501 24.8667 72.341 24.84 72.1944 24.8C71.821 24.72 71.5544 24.5533 71.3944 24.3C71.2344 24.0333 71.1544 23.7333 71.1544 23.4C71.1544 23.0667 71.2544 22.7933 71.4544 22.58C71.6677 22.3667 71.941 22.24 72.2744 22.2ZM54.2944 34.8C54.961 34.8 55.6544 34.8133 56.3744 34.84C57.0944 34.8533 57.8344 34.88 58.5944 34.92C59.1944 34.9467 59.6677 35.08 60.0144 35.32C60.3744 35.56 60.5544 35.9333 60.5544 36.44C60.5544 37.0133 60.3677 37.4133 59.9944 37.64C59.6344 37.8667 59.101 37.96 58.3944 37.92C57.581 37.88 56.781 37.8333 55.9944 37.78C55.2077 37.7133 54.521 37.6533 53.9344 37.6C53.201 37.52 52.741 37.3533 52.5544 37.1C52.3677 36.8467 52.2744 36.5333 52.2744 36.16C52.2744 35.72 52.4077 35.3867 52.6744 35.16C52.941 34.92 53.481 34.8 54.2944 34.8ZM58.4744 37.6C58.1944 37.6 57.9477 37.4933 57.7344 37.28C57.5344 37.0533 57.4344 36.76 57.4344 36.4C57.4344 36.04 57.5477 35.76 57.7744 35.56C58.001 35.3467 58.341 35.24 58.7944 35.24C59.0344 35.24 59.261 35.34 59.4744 35.54C59.6877 35.7267 59.7944 36 59.7944 36.36C59.7944 36.7333 59.681 37.0333 59.4544 37.26C59.241 37.4867 58.9144 37.6 58.4744 37.6ZM60.7544 26.84C61.3144 26.84 61.741 26.6533 62.0344 26.28C62.3277 25.9067 62.4744 25.4133 62.4744 24.8C62.4744 24.36 62.301 23.9667 61.9544 23.62C61.621 23.26 61.141 23.08 60.5144 23.08C59.981 23.08 59.5477 23.2667 59.2144 23.64C58.881 24 58.7144 24.52 58.7144 25.2C58.7144 25.6933 58.881 26.0933 59.2144 26.4C59.561 26.6933 60.0744 26.84 60.7544 26.84ZM79.2628 40.48C79.1695 39.08 79.0961 37.6333 79.0428 36.14C79.0028 34.6467 78.9628 33.1133 78.9228 31.54C78.8961 29.9667 78.8761 28.3867 78.8628 26.8C80.4228 26.8 81.5295 26.7133 82.1828 26.54C82.8495 26.3533 83.1828 25.96 83.1828 25.36C83.1828 24.84 82.8761 24.5 82.2628 24.34C81.6495 24.18 80.4895 24.16 78.7828 24.28C78.7695 23.92 78.7628 23.5467 78.7628 23.16C78.7628 22.76 78.7695 22.3733 78.7828 22C80.1828 21.9867 81.2495 21.9267 81.9828 21.82C82.7295 21.7133 83.2361 21.5533 83.5028 21.34C83.7695 21.1133 83.9028 20.8267 83.9028 20.48C83.9028 19.8933 83.5361 19.5333 82.8028 19.4C82.0828 19.2667 80.7295 19.28 78.7428 19.44C78.7428 19.2933 78.7428 19.1467 78.7428 19C78.7428 18.8533 78.7428 18.6933 78.7428 18.52C78.7828 16.5733 79.2561 15.12 80.1628 14.16C81.0828 13.2 82.4895 12.72 84.3828 12.72C86.1695 12.72 87.4628 13.1333 88.2628 13.96C89.0761 14.7733 89.7428 15.8933 90.2628 17.32C90.6895 18.48 91.1228 19.7733 91.5628 21.2C92.0028 22.6133 92.4428 24.0733 92.8828 25.58C93.3361 27.0867 93.7828 28.56 94.2228 30C94.6628 31.4267 95.0895 32.7333 95.5028 33.92C95.6361 34.32 95.8428 34.5733 96.1228 34.68C96.4161 34.7733 96.6828 34.74 96.9228 34.58C97.1761 34.42 97.3028 34.1467 97.3028 33.76C97.3028 31.72 97.2561 29.6733 97.1628 27.62C97.0695 25.5667 96.9695 23.4533 96.8628 21.28C96.7695 19.1067 96.7161 16.8267 96.7028 14.44C96.7028 13.52 96.8628 12.82 97.1828 12.34C97.5161 11.8467 98.0628 11.6 98.8228 11.6C99.5428 11.6 100.063 11.86 100.383 12.38C100.703 12.9 100.863 13.6267 100.863 14.56C100.876 16.4667 100.869 18.5333 100.843 20.76C100.816 22.9867 100.769 25.28 100.703 27.64C100.636 29.9867 100.556 32.2933 100.463 34.56C100.409 36.0533 100.069 37.1867 99.4428 37.96C98.8295 38.7333 97.8628 39.12 96.5428 39.12C95.3295 39.12 94.3695 38.7667 93.6628 38.06C92.9695 37.3533 92.3695 36.2 91.8628 34.6C91.5161 33.5067 91.1495 32.2333 90.7628 30.78C90.3895 29.3267 90.0028 27.8467 89.6028 26.34C89.2028 24.82 88.8095 23.4133 88.4228 22.12C88.2628 21.5733 88.0961 21.2 87.9228 21C87.7495 20.7867 87.5295 20.68 87.2628 20.68C86.9295 20.68 86.6628 20.8 86.4628 21.04C86.2761 21.28 86.1295 21.64 86.0228 22.12C85.6495 24.04 85.2828 26.0933 84.9228 28.28C84.5628 30.4533 84.1895 32.6267 83.8028 34.8C83.4295 36.96 83.0228 38.9733 82.5828 40.84C82.4495 41.4533 82.2495 41.9267 81.9828 42.26C81.7161 42.5933 81.3428 42.76 80.8628 42.76C80.3428 42.76 79.9561 42.5533 79.7028 42.14C79.4495 41.7267 79.3028 41.1733 79.2628 40.48ZM96.9828 15.8C97.2628 15.8 97.5495 15.8 97.8428 15.8C98.1361 15.8 98.4228 15.8 98.7028 15.8C98.9161 15.8 99.1161 15.84 99.3028 15.92C99.4895 15.9867 99.6428 16.12 99.7628 16.32C99.8828 16.5067 99.9428 16.7733 99.9428 17.12C99.9428 17.48 99.8961 17.7667 99.8028 17.98C99.7228 18.1933 99.5961 18.3467 99.4228 18.44C99.2628 18.52 99.0628 18.56 98.8228 18.56C98.5028 18.56 98.1895 18.56 97.8828 18.56C97.5761 18.56 97.2628 18.56 96.9428 18.56C95.8228 18.56 94.9828 18.5133 94.4228 18.42C93.8628 18.3267 93.4895 18.1733 93.3028 17.96C93.1161 17.7467 93.0228 17.4667 93.0228 17.12C93.0228 16.8133 93.1095 16.5667 93.2828 16.38C93.4695 16.18 93.8428 16.0333 94.4028 15.94C94.9761 15.8467 95.8361 15.8 96.9828 15.8ZM99.7828 21.72C99.9295 21.72 100.069 21.72 100.203 21.72C100.349 21.72 100.489 21.72 100.623 21.72C101.929 21.72 102.783 21.8067 103.183 21.98C103.583 22.1533 103.783 22.52 103.783 23.08C103.783 23.6 103.583 23.9733 103.183 24.2C102.796 24.4267 101.969 24.52 100.703 24.48C100.529 24.48 100.356 24.48 100.183 24.48C100.023 24.48 99.8495 24.48 99.6628 24.48C99.1295 24.4533 98.7361 24.3267 98.4828 24.1C98.2295 23.86 98.1028 23.52 98.1028 23.08C98.1028 22.6133 98.2495 22.2733 98.5428 22.06C98.8361 21.8333 99.2495 21.72 99.7828 21.72ZM98.9828 25.04C99.0495 25.04 99.1028 25.04 99.1428 25.04C99.1961 25.04 99.2495 25.04 99.3028 25.04C99.5028 25.04 99.6628 25.1133 99.7828 25.26C99.9161 25.3933 100.016 25.5733 100.083 25.8C100.149 26.0133 100.183 26.24 100.183 26.48C100.183 26.76 100.149 27.0333 100.083 27.3C100.016 27.5667 99.9161 27.7867 99.7828 27.96C99.6495 28.12 99.4761 28.2 99.2628 28.2C99.2095 28.2 99.1428 28.2 99.0628 28.2C98.9961 28.2 98.9295 28.2 98.8628 28.2C98.5695 28.2 98.3428 28.04 98.1828 27.72C98.0228 27.4 97.9428 27.0533 97.9428 26.68C97.9428 26.28 98.0228 25.9067 98.1828 25.56C98.3561 25.2133 98.6228 25.04 98.9828 25.04ZM81.1028 34.76C81.2228 34.76 81.3561 34.76 81.5028 34.76C81.6495 34.76 81.7828 34.76 81.9028 34.76C82.2495 34.7733 82.5095 34.8667 82.6828 35.04C82.8561 35.2 82.9428 35.48 82.9428 35.88C82.9428 36.3333 82.8228 36.66 82.5828 36.86C82.3428 37.06 82.0628 37.16 81.7428 37.16C81.6095 37.16 81.4761 37.16 81.3428 37.16C81.2228 37.16 81.0895 37.16 80.9428 37.16C80.6228 37.1333 80.3695 37.02 80.1828 36.82C79.9961 36.6067 79.9028 36.3333 79.9028 36C79.9028 35.5333 80.0228 35.2133 80.2628 35.04C80.5028 34.8667 80.7828 34.7733 81.1028 34.76ZM87.8228 38.32C87.1428 38.32 86.5961 38.1 86.1828 37.66C85.7828 37.2067 85.5828 36.6533 85.5828 36C85.5828 35.16 85.7828 34.5467 86.1828 34.16C86.5961 33.76 87.0895 33.56 87.6628 33.56C88.5428 33.56 89.2095 33.7533 89.6628 34.14C90.1161 34.5133 90.3428 35.12 90.3428 35.96C90.3428 36.6933 90.1295 37.2733 89.7028 37.7C89.2761 38.1133 88.6495 38.32 87.8228 38.32ZM86.5828 17.88C86.5828 17.88 86.5828 17.8867 86.5828 17.9C86.5828 17.9 86.5828 17.8933 86.5828 17.88ZM83.7828 15.6C83.7828 15.6133 83.7828 15.62 83.7828 15.62C83.7828 15.6067 83.7828 15.6 83.7828 15.6ZM105.957 17.76C105.744 17.32 105.597 16.9667 105.517 16.7C105.437 16.42 105.397 16.1733 105.397 15.96C105.397 15.6533 105.471 15.3933 105.617 15.18C105.764 14.9533 105.951 14.7867 106.177 14.68C106.404 14.56 106.637 14.5 106.877 14.5C107.224 14.5 107.557 14.64 107.877 14.92C108.197 15.1867 108.504 15.5733 108.797 16.08C109.411 17.0933 109.997 18.1667 110.557 19.3C111.117 20.4333 111.724 21.5533 112.377 22.66C112.617 23.0733 112.877 23.4133 113.157 23.68C113.437 23.9467 113.751 24.08 114.097 24.08C114.417 24.08 114.751 23.96 115.097 23.72C115.444 23.4667 115.804 23.1267 116.177 22.7C117.284 21.4333 118.364 20.16 119.417 18.88C120.471 17.5867 121.524 16.3333 122.577 15.12C123.004 14.6133 123.431 14.2533 123.857 14.04C124.297 13.8133 124.711 13.7 125.097 13.7C125.497 13.7 125.851 13.8 126.157 14C126.477 14.1867 126.724 14.4467 126.897 14.78C127.084 15.1 127.177 15.4733 127.177 15.9C127.177 16.2867 127.111 16.7 126.977 17.14C126.857 17.58 126.684 18.0133 126.457 18.44C126.124 19.0533 125.784 19.6733 125.437 20.3C125.091 20.9133 124.684 21.6 124.217 22.36C122.977 21.68 122.064 21.2933 121.477 21.2C120.904 21.1067 120.497 21.2933 120.257 21.76C120.111 22.04 120.084 22.3267 120.177 22.62C120.284 22.9 120.551 23.2067 120.977 23.54C121.417 23.86 122.071 24.2267 122.937 24.64C122.764 24.9333 122.584 25.2333 122.397 25.54C122.224 25.8333 122.057 26.12 121.897 26.4C121.777 26.6 121.664 26.8 121.557 27C121.464 27.1867 121.364 27.3733 121.257 27.56C121.137 27.7733 121.017 27.9867 120.897 28.2C120.777 28.4 120.657 28.6 120.537 28.8C120.404 29.04 120.271 29.2733 120.137 29.5C120.017 29.7133 119.897 29.9333 119.777 30.16C119.511 30.64 119.251 31.12 118.997 31.6C118.757 32.08 118.557 32.5667 118.397 33.06C118.237 33.5533 118.151 34.0533 118.137 34.56C118.124 35.4133 118.151 36.2533 118.217 37.08C118.284 37.8933 118.311 38.7333 118.297 39.6C118.284 40.52 118.117 41.2133 117.797 41.68C117.477 42.1333 116.964 42.36 116.257 42.36C115.537 42.36 115.017 42.12 114.697 41.64C114.391 41.16 114.204 40.44 114.137 39.48C114.097 38.8 114.097 38.14 114.137 37.5C114.177 36.86 114.177 36.2 114.137 35.52C114.097 34.84 114.004 34.22 113.857 33.66C113.724 33.1 113.551 32.6133 113.337 32.2C112.177 29.92 110.937 27.5267 109.617 25.02C108.297 22.5133 107.077 20.0933 105.957 17.76ZM116.177 29.94C116.884 29.94 117.411 29.76 117.757 29.4C118.117 29.0267 118.297 28.4733 118.297 27.74C118.297 27.3133 118.124 26.9333 117.777 26.6C117.444 26.2667 117.004 26.1 116.457 26.1C115.764 26.1 115.224 26.2733 114.837 26.62C114.451 26.9667 114.257 27.46 114.257 28.1C114.257 28.6333 114.444 29.0733 114.817 29.42C115.191 29.7667 115.644 29.94 116.177 29.94ZM116.337 38.64C116.337 38.64 116.337 38.6333 116.337 38.62C116.337 38.6333 116.331 38.64 116.317 38.64C116.317 38.64 116.324 38.64 116.337 38.64ZM122.017 18.8C121.991 18.7733 121.944 18.7467 121.877 18.72C121.824 18.68 121.777 18.6533 121.737 18.64C121.577 18.56 121.491 18.4133 121.477 18.2C121.477 17.9733 121.564 17.6933 121.737 17.36C121.924 17.0133 122.091 16.78 122.237 16.66C122.397 16.54 122.564 16.52 122.737 16.6C122.817 16.64 122.891 16.6733 122.957 16.7C123.024 16.7267 123.097 16.76 123.177 16.8C123.297 16.8533 123.344 17.0067 123.317 17.26C123.304 17.5 123.244 17.72 123.137 17.92C123.044 18.16 122.884 18.3933 122.657 18.62C122.431 18.8333 122.217 18.8933 122.017 18.8ZM117.577 24.68C117.524 24.64 117.471 24.6 117.417 24.56C117.377 24.52 117.337 24.48 117.297 24.44C117.111 24.24 117.044 24.04 117.097 23.84C117.151 23.6267 117.244 23.44 117.377 23.28C117.524 23.12 117.691 23.0067 117.877 22.94C118.077 22.86 118.244 22.8533 118.377 22.92C118.457 22.96 118.531 23 118.597 23.04C118.664 23.08 118.724 23.12 118.777 23.16C118.937 23.28 119.011 23.42 118.997 23.58C118.984 23.74 118.884 23.9733 118.697 24.28C118.484 24.6 118.297 24.78 118.137 24.82C117.991 24.86 117.804 24.8133 117.577 24.68ZM111.617 23.52C111.577 23.5333 111.531 23.56 111.477 23.6C111.424 23.6267 111.377 23.6533 111.337 23.68C111.244 23.7333 111.131 23.72 110.997 23.64C110.877 23.56 110.737 23.4 110.577 23.16C110.377 22.8933 110.257 22.68 110.217 22.52C110.177 22.36 110.217 22.24 110.337 22.16C110.364 22.1333 110.397 22.1067 110.437 22.08C110.491 22.04 110.524 22.0133 110.537 22C110.657 21.92 110.791 21.9267 110.937 22.02C111.084 22.1 111.217 22.24 111.337 22.44C111.537 22.7733 111.657 23.02 111.697 23.18C111.751 23.34 111.724 23.4533 111.617 23.52ZM112.097 20.36C111.377 20.68 110.651 20.9867 109.917 21.28C109.184 21.56 108.457 21.84 107.737 22.12C106.804 22.48 106.097 22.6733 105.617 22.7C105.151 22.7133 104.817 22.48 104.617 22C104.417 21.4933 104.491 21.06 104.837 20.7C105.184 20.3267 105.804 19.9333 106.697 19.52C107.417 19.16 108.144 18.82 108.877 18.5C109.611 18.1667 110.337 17.8533 111.057 17.56C111.977 17.1733 112.744 16.9533 113.357 16.9C113.984 16.8333 114.404 17.0533 114.617 17.56C114.884 18.0933 114.777 18.5867 114.297 19.04C113.831 19.48 113.097 19.92 112.097 20.36Z" fill="black"/>
<defs>
<clipPath id="clip0_215_26">
<rect width="23" height="50" rx="11.5" fill="white"/>
</clipPath>
</defs>
</svg>
