<svg width="20" height="20" viewBox="0 0 20 20" fill="none" xmlns="http://www.w3.org/2000/svg">
<path d="M10 0C4.48597 0 0 4.48597 0 10C0 15.514 4.48597 20 10 20C15.514 20 20 15.514 20 10C20 4.48597 15.514 0 10 0ZM13.37 13.37C13.0167 13.7234 12.4343 13.7198 12.0845 13.37L9.35725 10.6428C9.18679 10.4723 9.09091 10.241 9.09091 10V4.54545C9.09091 4.04341 9.49795 3.63636 10 3.63636C10.502 3.63636 10.9091 4.04341 10.9091 4.54545V9.62358L13.37 12.0845C13.7251 12.4395 13.7251 13.0146 13.37 13.37Z" fill="#FF9D29"/>
</svg>
