<svg width="19" height="19" viewBox="0 0 19 19" fill="none" xmlns="http://www.w3.org/2000/svg">
<path d="M4.61186 12.2702C4.01568 11.3892 3.66667 10.3275 3.66667 9.18519C3.66667 6.14618 6.13378 3.67407 9.16667 3.67407C12.1996 3.67407 14.6667 6.14618 14.6667 9.18519C14.6667 10.3275 14.3177 11.3892 13.7215 12.2702C14.7817 12.8828 15.7277 13.6852 16.4732 14.6721C17.6251 13.1364 18.3333 11.2496 18.3333 9.18519C18.3333 4.12077 14.2209 0 9.16667 0C4.11246 0 0 4.12077 0 9.18519C0 11.2496 0.708199 13.1364 1.86019 14.6721C2.60564 13.6852 3.55164 12.8828 4.61186 12.2702Z" fill="#FF9D29"/>
<path d="M9.16583 14.6963C7.32031 14.6963 5.63982 15.6363 4.6333 17.1202C5.97574 17.8935 7.50953 18.3704 9.16583 18.3704C10.8221 18.3704 12.3559 17.8935 13.6984 17.1202C12.6918 15.6363 11.0114 14.6963 9.16583 14.6963Z" fill="#FF9D29"/>
<path d="M9.16663 11.9408C10.6854 11.9408 11.9166 10.7071 11.9166 9.18524C11.9166 7.66339 10.6854 6.42969 9.16663 6.42969C7.64784 6.42969 6.41663 7.66339 6.41663 9.18524C6.41663 10.7071 7.64784 11.9408 9.16663 11.9408Z" fill="#FF9D29"/>
</svg>
