<svg width="50" height="34" viewBox="0 0 50 34" fill="none" xmlns="http://www.w3.org/2000/svg">
<path d="M2.49751 29.1429H32.5008C33.1381 29.1435 33.7511 29.3806 34.2144 29.8055C34.6778 30.2304 34.9567 30.8112 34.994 31.4291C35.0314 32.047 34.8244 32.6555 34.4154 33.1302C34.0064 33.6048 33.4262 33.9099 32.7934 33.983L32.5008 34H2.49751C1.86024 33.9993 1.24729 33.7623 0.783897 33.3374C0.320505 32.9124 0.0416475 32.3317 0.00430056 31.7138C-0.0330464 31.0958 0.173936 30.4874 0.582957 30.0127C0.991978 29.538 1.57216 29.233 2.20497 29.1599L2.49751 29.1429ZM2.49751 14.5714H47.5025C48.1398 14.5721 48.7527 14.8091 49.2161 15.2341C49.6795 15.659 49.9584 16.2397 49.9957 16.8577C50.033 17.4756 49.8261 18.0841 49.417 18.5587C49.008 19.0334 48.4278 19.3385 47.795 19.4116L47.5025 19.4286H2.49751C1.86024 19.4279 1.24729 19.1909 0.783897 18.7659C0.320505 18.341 0.0416475 17.7603 0.00430056 17.1423C-0.0330464 16.5244 0.173936 15.9159 0.582957 15.4413C0.991978 14.9666 1.57216 14.6615 2.20497 14.5884L2.49751 14.5714ZM2.49751 0H40.0017C40.6389 0.000686575 41.2519 0.237706 41.7153 0.662631C42.1787 1.08756 42.4575 1.66831 42.4949 2.28624C42.5322 2.90417 42.3252 3.51264 41.9162 3.98731C41.5072 4.46198 40.927 4.76703 40.2942 4.84014L40.0017 4.85714H2.49751C1.86024 4.85646 1.24729 4.61944 0.783897 4.19451C0.320505 3.76959 0.0416475 3.18883 0.00430056 2.5709C-0.0330464 1.95297 0.173936 1.34451 0.582957 0.869836C0.991978 0.395164 1.57216 0.0901088 2.20497 0.0169999L2.49751 0Z" fill="black"/>
</svg>
